<svg xmlns="http://www.w3.org/2000/svg" width="145" height="40" xmlns:v="https://vecta.io/nano"><path d="M7.496 16.808a92.41 92.41 0 0 0-7.341 5.794.49.49 0 0 0-.095.589l6.078 10.262c.108.186.361.271.562.199a92.66 92.66 0 0 0 8.61-3.651c-2.967-4.17-5.579-8.585-7.814-13.193zM29.298 5.345c-2.935 1.071-5.808 2.292-8.61 3.651a92.57 92.57 0 0 1 7.813 13.192c2.539-1.801 4.989-3.735 7.34-5.795.161-.143.204-.404.096-.587L29.858 5.54c-.106-.18-.358-.269-.56-.195z" fill="#2ce0df"/><path d="M20.687 8.996a91.94 91.94 0 0 0-5.793-7.341.49.49 0 0 0-.587-.096L4.042 7.638c-.183.108-.272.361-.197.563 1.071 2.933 2.292 5.806 3.651 8.607a92.48 92.48 0 0 1 13.191-7.812zm-5.379 21.007l5.795 7.342c.141.161.403.203.586.097l10.264-6.078c.183-.107.272-.358.2-.562a93.16 93.16 0 0 0-3.651-8.61 92.58 92.58 0 0 1-13.194 7.811z" fill="#a7f501"/><path fill="#01cc00" d="M20.687 8.996c-4.605 2.235-9.019 4.848-13.192 7.813a92.64 92.64 0 0 0 7.813 13.193c4.606-2.233 9.02-4.85 13.192-7.813-2.232-4.607-4.847-9.018-7.813-13.193z"/><path d="M53.756 29.062h-6.064c-.375 0-.693-.286-.693-.598V12.248c0-.339.317-.598.693-.598h5.747c3.35 0 5.284 1.715 5.284 4.287 0 1.846-.982 3.172-3.292 3.822 2.368.312 4.129 1.846 4.129 4.366 0 3.144-2.107 4.937-5.804 4.937zm-1.01-15.099H50.06v4.808h2.512c1.993 0 3.032-.909 3.032-2.469 0-1.612-.953-2.339-2.858-2.339zm.057 6.991H50.06v5.691h3.263c1.819 0 2.974-.909 2.974-2.859 0-1.792-1.328-2.832-3.494-2.832zm15.189-2.131c-.115.39-.404.572-.866.468-.404-.104-.924-.389-1.501-.389-.953 0-1.849.988-1.849 3.457v6.106c0 .338-.288.598-.664.598h-1.617c-.375 0-.693-.26-.693-.598V17.134c0-.339.317-.599.693-.599h1.097a.78.78 0 0 1 .751.545l.318 1.041c.75-1.092 1.761-1.794 3.089-1.794.404 0 .78.078 1.068.182.549.208.723.52.607.884l-.433 1.43zm3.868 10.239h-1.587c-.375 0-.692-.26-.692-.598v-11.33c0-.339.317-.599.692-.599h1.587c.376 0 .665.26.665.599v11.331c0 .338-.289.597-.665.597zm7.826 5.276c-2.945 0-5.833-.856-5.833-3.716 0-.339.289-.624.664-.624l1.675.053c.376 0 .577.232.636.571.26 1.272 1.646 1.533 2.945 1.533 1.791 0 3.032-.676 3.032-1.715 0-.988-.521-1.482-2.051-1.482h-2.888c-1.646 0-3.233-.519-3.233-2.157 0-.883.52-1.559 1.212-2.13-1.241-.78-1.992-2.026-1.992-3.69 0-2.937 2.138-4.626 5.313-4.626.837 0 1.56.182 2.166.182h3.522c.491 0 .722.26.722.624v.754c0 .416-.173.572-.549.598l-1.501.13c.606.676.982 1.377.982 2.339 0 2.832-2.021 4.6-5.313 4.6-.491 0-.982-.052-1.443-.156-.231.208-.377.416-.377.702 0 .52.435.623 1.301.623h2.482c2.686 0 4.418 1.17 4.418 3.432 0 3.116-3.06 4.155-5.89 4.155zm-.491-15.983c-1.415 0-2.368.546-2.368 2.547s.953 2.625 2.368 2.625c1.386 0 2.338-.701 2.338-2.625 0-1.949-.923-2.547-2.338-2.547zm17.123 10.707h-1.56c-.376 0-.693-.26-.693-.598v-8.342c0-1.014-.433-1.534-1.53-1.534-1.588 0-2.829 1.222-2.829 2.912v6.965c0 .338-.319.598-.693.598h-1.559c-.376 0-.693-.26-.693-.598V11.26c0-.338.317-.598.693-.598h1.587c.376 0 .665.26.665.598v6.654c1.011-1.015 2.28-1.586 3.754-1.586 2.166 0 3.551 1.3 3.551 3.249v8.889c0 .337-.319.596-.693.596zm8.201-.156c-.26.104-1.155.312-2.137.312-2.021 0-2.888-1.014-2.888-2.834v-7.77h-1.212c-.376 0-.665-.286-.665-.625v-.832c0-.339.289-.624.665-.624h1.212V13.83c0-.39.174-.702.578-.806l1.529-.389c.492-.131.867.025.867.545v3.353h1.502c.375 0 .663.285.663.624v.832c0 .339-.288.625-.663.625h-1.502v7.614c0 .441.288.624.722.624.376 0 .577-.078.838-.13.375-.078.635.104.722.441l.231 1.065c.058.314-.086.523-.462.678zm7.623.313c-1.731 0-2.656-.598-3.436-1.663l-.202.909c-.087.39-.434.598-.866.598h-1.012c-.375 0-.692-.26-.692-.598V11.26c0-.338.317-.598.692-.598h1.588c.376 0 .665.26.665.598v6.654c.693-.988 1.646-1.586 3.263-1.586 2.888 0 4.852 2.393 4.852 6.395-.001 4.936-2.138 6.496-4.852 6.496zm-.809-10.657c-1.56 0-2.541 1.404-2.541 4.264 0 2.831.953 4.079 2.57 4.079 1.588 0 2.483-1.039 2.483-4.105.001-2.054-.433-4.238-2.512-4.238zm12.302 10.657c-3.609 0-5.689-2.443-5.689-6.471 0-3.977 2.109-6.421 5.689-6.421s5.688 2.444 5.688 6.421c0 4.027-2.079 6.471-5.688 6.471zm0-10.657c-1.589 0-2.657 1.171-2.657 4.186 0 3.092 1.098 4.183 2.657 4.183s2.686-1.091 2.686-4.183c-.001-3.015-1.098-4.186-2.686-4.186zm16.921 10.5h-2.194c-.404 0-.722-.156-.896-.468l-2.512-4.314-2.57 4.314c-.173.312-.49.468-.895.468h-2.137c-.376 0-.607-.312-.347-.65l4.187-5.897-3.695-5.329c-.231-.338-.029-.65.346-.65h2.195c.403 0 .692.13.895.493l2.107 3.588 2.108-3.588c.202-.363.491-.493.896-.493h2.107c.376 0 .607.312.346.65l-3.725 5.225 4.13 6.002c.231.312.03.649-.346.649zM71.852 14.539h-1.664c-.359 0-.641-.226-.641-.513v-1.921c0-.287.281-.512.641-.512h1.664c.358 0 .64.246.64.533v1.9c-.001.287-.282.513-.64.513z"/></svg>